<svg width="264" height="100" viewBox="0 0 264 100" fill="none" xmlns="http://www.w3.org/2000/svg">
<g clip-path="url(#clip0_841_1810)">
<path d="M35.7491 68.8674C36.9934 68.2738 38.1269 67.6043 39.1507 66.857C41.7551 64.9562 44.1338 62.6148 46.1765 60.1121C46.6551 59.5258 47.1738 58.9731 47.7301 58.4555C48.0018 58.2033 48.2846 57.988 48.5778 57.8096C49.4674 57.2683 50.5364 57.0592 51.5694 57.2088C52.9962 57.416 54.1327 58.5201 54.5191 59.8693C54.7108 60.5387 54.7077 61.3291 54.5827 62.0253C54.472 62.6424 54.2773 63.2371 53.9986 63.809C53.196 65.4565 51.9282 66.8673 50.4605 67.9437C49.903 68.3539 49.2039 68.8079 48.3656 69.3063C48.0346 69.503 47.6903 69.6865 47.3315 69.8558C45.7583 70.601 44.1635 71.127 42.5493 71.4335C40.3653 71.8488 38.1955 71.8324 36.0402 71.3853C35.4223 71.2572 34.9825 70.7077 34.9825 70.0761C34.9825 69.5584 35.2828 69.0898 35.7491 68.8674Z" fill="#0C4E6E"/>
<path d="M51.5696 41.5565C50.5365 41.7072 49.4674 41.497 48.5778 40.9557C48.2848 40.7773 48.003 40.562 47.7303 40.3098C47.1728 39.7911 46.6551 39.2395 46.1765 38.6531C44.1339 36.1506 41.7561 33.808 39.1509 31.9083C38.1269 31.1609 36.9925 30.4915 35.7492 29.8979C35.2819 29.6754 34.9837 29.2059 34.9837 28.6882C34.9837 28.0566 35.4232 27.5071 36.0413 27.379C38.1967 26.932 40.3663 26.9156 42.5504 27.3308C44.1656 27.6373 45.7594 28.1632 47.3327 28.9086C47.6903 29.0777 48.0357 29.2612 48.3667 29.4581C49.2051 29.9573 49.903 30.4115 50.4616 30.8206C51.9293 31.8981 53.1972 33.3077 53.9995 34.9552C54.2783 35.5273 54.473 36.1219 54.5837 36.7391C54.7089 37.4352 54.7119 38.2266 54.5202 38.8951C54.1338 40.2452 52.9963 41.3494 51.5696 41.5565Z" fill="#0C4E6E"/>
<path d="M32.041 71.4301C30.2054 71.9243 28.3555 72.0781 26.4913 71.8925C18.371 71.0805 12.3015 64.4373 10.0683 56.9287C9.34365 54.4918 8.98801 52.02 9.00031 49.5133C8.98801 47.0057 9.34365 44.5339 10.0683 42.0971C12.3025 34.5895 18.371 27.9452 26.4913 27.1332C28.3555 26.9466 30.2045 27.1014 32.041 27.5956C32.4838 27.7145 32.7893 28.1195 32.7893 28.5777V28.8412C32.7893 29.16 32.6006 29.4502 32.3086 29.5793C27.8748 31.5436 24.3984 35.1923 22.3373 39.5658C20.8727 42.6732 20.143 46.0882 20.1594 49.5124C20.144 52.9365 20.8738 56.3514 22.3373 59.4588C24.3984 63.8323 27.8748 67.481 32.3086 69.4454C32.6006 69.5745 32.7893 69.8636 32.7893 70.1834V70.447C32.7893 70.9052 32.4838 71.3112 32.041 71.4301Z" fill="#0C4E6E"/>
<path d="M242.251 71.2186V40.4033H249.981V71.2186H242.251Z" fill="#0C4E6E"/>
<path d="M250.001 27.0314H242.232V34.8027H250.001V27.0314Z" fill="#0C4E6E"/>
<path d="M219.575 39.8226C221.551 39.8226 223.178 40.1521 224.457 40.811C225.735 41.4312 226.742 42.1289 227.479 42.9041C228.215 43.6407 228.72 44.2414 228.99 44.7065H229.338V40.404H237.07V71.2192H229.338V66.9168H228.99C228.72 67.3819 228.215 68.0021 227.479 68.7774C226.742 69.5526 225.735 70.2503 224.457 70.8705C223.178 71.4907 221.551 71.8007 219.575 71.8007C217.288 71.8007 215.293 71.355 213.587 70.4634C211.882 69.5332 210.449 68.3122 209.285 66.8006C208.162 65.25 207.309 63.5252 206.728 61.6259C206.186 59.7266 205.915 57.7885 205.915 55.8117C205.915 53.8348 206.186 51.8967 206.728 49.9974C207.309 48.0981 208.162 46.3926 209.285 44.8809C210.449 43.3305 211.882 42.1095 213.587 41.218C215.293 40.2877 217.288 39.8226 219.575 39.8226ZM221.609 46.16C219.865 46.16 218.392 46.6446 217.19 47.6137C216.029 48.5439 215.156 49.7456 214.575 51.2185C213.995 52.6915 213.704 54.2224 213.704 55.8117C213.704 57.4009 213.995 58.932 214.575 60.4049C215.156 61.8779 216.029 63.0988 217.19 64.0678C218.392 64.9982 219.865 65.4633 221.609 65.4633C223.352 65.4633 224.806 64.9982 225.967 64.0678C227.131 63.0988 228.002 61.8779 228.583 60.4049C229.165 58.932 229.456 57.4009 229.456 55.8117C229.456 54.2224 229.165 52.6915 228.583 51.2185C228.002 49.7456 227.131 48.5439 225.967 47.6137C224.806 46.6446 223.352 46.16 221.609 46.16Z" fill="#0C4E6E"/>
<path d="M202.36 63.4166H194.591V71.1879H202.36V63.4166Z" fill="#0C4E6E"/>
<path d="M171.021 39.8226C172.997 39.8226 174.625 40.1521 175.904 40.811C177.183 41.4312 178.19 42.1289 178.926 42.9041C179.663 43.6407 180.166 44.2414 180.438 44.7065H180.786V40.404H188.518V71.2192H180.786V66.9168H180.438C180.166 67.3819 179.663 68.0021 178.926 68.7774C178.19 69.5526 177.183 70.2503 175.904 70.8705C174.625 71.4907 172.997 71.8007 171.021 71.8007C168.735 71.8007 166.739 71.355 165.034 70.4634C163.329 69.5332 161.896 68.3122 160.733 66.8006C159.61 65.25 158.757 63.5252 158.176 61.6259C157.633 59.7266 157.362 57.7885 157.362 55.8117C157.362 53.8348 157.633 51.8967 158.176 49.9974C158.757 48.0981 159.61 46.3926 160.733 44.8809C161.896 43.3305 163.329 42.1095 165.034 41.218C166.739 40.2877 168.735 39.8226 171.021 39.8226ZM173.055 46.16C171.312 46.16 169.84 46.6446 168.638 47.6137C167.476 48.5439 166.604 49.7456 166.023 51.2185C165.441 52.6915 165.151 54.2224 165.151 55.8117C165.151 57.4009 165.441 58.932 166.023 60.4049C166.604 61.8779 167.476 63.0988 168.638 64.0678C169.84 64.9982 171.312 65.4633 173.055 65.4633C174.8 65.4633 176.252 64.9982 177.416 64.0678C178.577 63.0988 179.45 61.8779 180.031 60.4049C180.611 58.932 180.902 57.4009 180.902 55.8117C180.902 54.2224 180.611 52.6915 180.031 51.2185C179.45 49.7456 178.577 48.5439 177.416 47.6137C176.252 46.6446 174.8 46.16 173.055 46.16Z" fill="#0C4E6E"/>
<path d="M140.345 71.8007C138.368 71.8007 136.741 71.4907 135.462 70.8705C134.183 70.2116 133.176 69.4945 132.44 68.7192C131.742 67.9441 131.258 67.3431 130.987 66.9168H130.58V71.2194H122.849V27.0314H130.58V44.7065H130.987C131.258 44.2414 131.742 43.6212 132.44 42.846C133.176 42.0708 134.183 41.3731 135.462 40.7529C136.741 40.1327 138.368 39.8226 140.345 39.8226C142.67 39.8226 144.685 40.2878 146.39 41.2181C148.095 42.1096 149.509 43.3305 150.633 44.8811C151.756 46.3927 152.59 48.0982 153.132 49.9976C153.713 51.8967 154.004 53.8349 154.004 55.8117C154.004 57.7885 153.713 59.7266 153.132 61.6259C152.59 63.5252 151.756 65.2502 150.633 66.8006C149.509 68.3122 148.095 69.5332 146.39 70.4636C144.685 71.3551 142.67 71.8007 140.345 71.8007ZM138.31 65.4633C140.093 65.4633 141.565 64.9982 142.728 64.0679C143.89 63.0988 144.762 61.8779 145.343 60.4049C145.925 58.932 146.215 57.4009 146.215 55.8117C146.215 54.2224 145.925 52.6915 145.343 51.2185C144.762 49.7456 143.89 48.5439 142.728 47.6137C141.565 46.6446 140.093 46.1602 138.31 46.1602C136.567 46.1602 135.114 46.6446 133.951 47.6137C132.789 48.5439 131.917 49.7456 131.335 51.2185C130.754 52.6915 130.464 54.2224 130.464 55.8117C130.464 57.4009 130.754 58.932 131.335 60.4049C131.917 61.8779 132.789 63.0988 133.951 64.0679C135.114 64.9982 136.567 65.4633 138.31 65.4633Z" fill="#0C4E6E"/>
<path d="M72.9154 71.2192V40.404H80.6461V44.7065H80.9367C81.3242 44.0089 81.8667 43.2918 82.5643 42.5553C83.2617 41.7801 84.1529 41.1405 85.2379 40.6366C86.3616 40.0939 87.7373 39.8226 89.3648 39.8226C91.6511 39.8226 93.5304 40.3653 95.0029 41.4506C96.4754 42.5359 97.5604 43.9312 98.2579 45.6367H98.3742C99.1491 44.164 100.292 42.8266 101.803 41.625C103.354 40.4234 105.407 39.8226 107.965 39.8226C110.135 39.8226 111.937 40.3265 113.37 41.3343C114.843 42.3033 115.928 43.6212 116.625 45.288C117.362 46.9548 117.73 48.7572 117.73 50.6952V71.2192H109.999V52.3231C109.999 50.5401 109.554 49.0866 108.662 47.9624C107.81 46.7997 106.531 46.2182 104.826 46.2182C103.47 46.2182 102.365 46.5864 101.513 47.323C100.699 48.0206 100.098 48.9121 99.7111 49.9974C99.3623 51.0827 99.188 52.1875 99.188 53.3115V71.2192H91.4573V52.3231C91.4573 50.5401 91.0311 49.0866 90.1786 47.9624C89.3261 46.7997 88.0279 46.2182 86.2842 46.2182C84.928 46.2182 83.8236 46.5864 82.9711 47.323C82.1573 48.0206 81.5567 48.9315 81.1692 50.0556C80.8204 51.1409 80.6461 52.2262 80.6461 53.3115V71.2192H72.9154Z" fill="#0C4E6E"/>
<path d="M59.7965 71.2186V40.4033H67.5272V71.2186H59.7965Z" fill="#0C4E6E"/>
<path d="M67.5464 27.0314H59.7774V34.8027H67.5464V27.0314Z" fill="#0C4E6E"/>
</g>
<defs>
<clipPath id="clip0_841_1810">
<rect width="241" height="45" fill="white" transform="translate(9 27)"/>
</clipPath>
</defs>
</svg>
