<svg width="1408" height="621" viewBox="0 0 1408 621" fill="none" xmlns="http://www.w3.org/2000/svg">
<g clip-path="url(#clip0_362_5868)">
<path d="M0 -7H1408V87.4238V526.124V621H0V525.9V87.4867V-7Z" fill="url(#paint0_linear_362_5868)"/>
<path d="M762.057 537.626C793.737 512.827 806.634 496.338 847.039 483.888L847.11 621.332L810.856 621.298L730.598 621.39C739.106 596.705 734.534 576.89 718.039 557.144L720.357 554.935C721.18 554.407 725.824 549.963 727.056 548.941C736.235 541.329 745.129 537.212 757.241 537.459L762.057 537.626Z" fill="#0D8FC0"/>
<path d="M757.241 537.459L762.057 537.626C778.51 541.241 790.053 548.527 799.209 562.885C811.572 582.276 811.277 599.548 810.856 621.298L730.598 621.39C739.106 596.705 734.534 576.89 718.039 557.144L720.357 554.935C721.18 554.407 725.824 549.963 727.056 548.941C736.235 541.329 745.129 537.213 757.241 537.459Z" fill="#78DBCF"/>
<path d="M923.05 544.463C930.798 543.484 933.892 543.354 941.722 544.656L944.328 544.998C953.822 546.945 960.601 549.53 969.222 554.178C994.859 570.087 1004.46 592.039 1004.24 621.401C957.143 620.417 906.474 621.377 859.103 621.393C858.446 589.847 870.583 568.006 898.018 552.225C905.911 548.478 911.926 546.375 920.472 544.959L923.05 544.463Z" fill="#FBC754"/>
<path d="M1210.22 511.366L1213.27 511.602C1225.03 512.309 1234.23 515.883 1244.01 522.311L1246.22 524.01C1258.4 533.128 1268.94 549.192 1270.33 564.563L1270.77 568.092C1271.74 586.977 1267.56 601.416 1254.68 615.652C1252.88 617.642 1250.98 619.533 1248.98 621.319L1214.54 621.372C1208.54 585.313 1180.09 565.973 1144.49 568.711C1144.91 565.799 1145.35 562.891 1145.83 559.986C1146.45 557.586 1147.2 555.218 1148.07 552.892C1154.73 534.704 1166.53 523.853 1183.75 515.85C1192.33 512.093 1200.96 511.064 1210.22 511.366Z" fill="#FD9046"/>
<path d="M670.752 538.056C684.797 538.669 696.219 540.604 708.281 548.518C711.626 551.292 715.058 553.988 718.04 557.144C734.535 576.89 739.107 596.705 730.599 621.39L616.183 621.314C610.994 605.394 611.18 593.942 616.11 578.177C620.279 567.305 626.196 558.083 635.986 551.488L638.618 549.718C644.31 542.51 662.064 539.109 670.752 538.056Z" fill="#FEDA83"/>
<path d="M1017.22 547.957C1022.25 550.498 1026.87 552.798 1032.03 555.056C1043.89 559.685 1060.82 564.22 1073.65 564.946L1076.03 565.016C1086.43 567.24 1116.26 563.864 1127.73 562.497C1131.93 561.787 1136.12 561.04 1140.3 560.255L1145.83 559.985C1145.35 562.89 1144.91 565.798 1144.49 568.71C1125.81 572.453 1110.83 579.845 1099.96 596.202C1094.92 603.755 1091.69 612.371 1090.54 621.378L1016.71 621.312C1016.41 613.947 1016.16 550.328 1017.22 547.957Z" fill="#0D8FC0"/>
<path d="M1144.49 568.71C1180.09 565.972 1208.54 585.312 1214.54 621.371L1090.54 621.377C1091.69 612.371 1094.92 603.755 1099.96 596.202C1110.83 579.844 1125.81 572.453 1144.49 568.71Z" fill="#FEDA83"/>
<path d="M578.017 578.315C587.864 575.84 606.284 575.853 616.11 578.178C611.18 593.943 610.995 605.395 616.183 621.314L523.904 621.29C527.214 614.754 530.208 610.388 534.841 604.803L537.104 602.367C545.654 591.712 557.68 585.018 570.271 580.337C572.791 579.582 575.455 578.956 578.017 578.315Z" fill="#0D8FC0"/>
<path d="M1270.77 568.092C1278.09 571.896 1284.83 575.654 1291.7 580.248C1309.19 592.609 1319.41 603.739 1331.49 621.343L1248.98 621.318C1250.98 619.533 1252.88 617.641 1254.68 615.651C1267.56 601.416 1271.73 586.976 1270.77 568.092Z" fill="#0D8FC0"/>
<path d="M1086.28 483.982C1086.98 456.517 1085.29 428.376 1086.03 400.831C1086.21 393.763 1087.64 387.892 1093.01 382.946C1096.99 379.247 1102.31 377.313 1107.74 377.582C1112.8 377.835 1118.4 380.049 1121.83 383.866C1129.16 392.03 1127.91 403.965 1127.9 414.089C1127.89 423.22 1127.66 432.301 1127.21 441.398C1131.26 437.246 1135.74 433.999 1139.96 430.071C1139.96 430.071 1140.37 427.529 1140.4 427.326L1141.17 429.191L1142.66 429.153C1142.55 430.587 1142.2 430.46 1140.92 431.824L1141.82 431.493L1141.39 431.939L1143.39 431.671C1146.28 430.369 1149.28 428.303 1152.24 426.79C1163.56 421.004 1171.24 419.813 1183.63 418.519L1183.67 448.762L1186.62 448.922L1183.82 449.901L1183.73 451.071L1184.32 451.668L1183.65 452.969L1183.75 515.85C1166.53 523.852 1154.73 534.704 1148.07 552.892C1147.2 555.218 1146.45 557.586 1145.83 559.985L1140.3 560.256C1136.12 561.04 1131.93 561.788 1127.73 562.498C1116.26 563.864 1086.43 567.24 1076.03 565.016L1073.65 564.946C1060.82 564.22 1043.89 559.685 1032.03 555.056C1026.87 552.798 1022.25 550.498 1017.22 547.957C1016.16 550.328 1016.41 613.948 1016.71 621.313L1004.24 621.401C1004.46 592.039 994.859 570.087 969.222 554.178C960.6 549.53 953.822 546.945 944.327 544.998C944.444 533.029 942.732 511.213 945.297 500.712L945.049 499.933L942.416 498.872L941.852 498.532C937.184 495.744 930.612 492.588 925.662 490.044L925.016 488.469L922.307 489.95L922.121 489.023C923.097 486.91 923.902 483.634 924.899 481.299C934.049 459.813 947.002 452.67 969.215 449.376C983.563 449.822 992.556 452.576 1003.22 463.087C1008.75 468.531 1012.54 476.627 1016.54 481.071C1018.35 485.561 1028.06 497.503 1031.84 501.228C1031.62 494.201 1030.97 479.04 1032.08 472.787L1032.41 501.197C1045.74 512.259 1061.57 509.077 1072.94 496.92C1075.93 494.721 1083.45 486.891 1086.28 483.982Z" fill="#A9C9F6"/>
<path d="M968.953 475.543C974.749 473.755 979.163 475.46 984.587 477.517C998.055 482.624 1007.05 509.279 1016.07 515.839L1017.41 513.31C1021.53 517.22 1026.48 522.248 1031.51 524.792L1031.95 528.15C1031.81 533.911 1031.25 550.05 1032.03 555.056C1026.87 552.798 1022.25 550.498 1017.22 547.957C1016.16 550.328 1016.41 613.948 1016.71 621.313L1004.24 621.401C1004.46 592.039 994.858 570.087 969.221 554.178C960.6 549.53 953.821 546.945 944.327 544.998C944.444 533.029 942.732 511.213 945.297 500.712L945.049 499.933C948.459 485.639 954.447 479.277 968.163 474.986L968.953 475.543Z" fill="#78DBCF"/>
<path d="M945.297 500.712C953.306 505.977 961.267 511.321 969.167 516.745C969.682 528.652 969.105 542.096 969.221 554.178C960.6 549.53 953.821 546.945 944.327 544.998C944.444 533.029 942.732 511.213 945.297 500.712Z" fill="#0D8FC0"/>
<path d="M968.163 474.985L968.953 475.543C969.338 488.049 969.448 504.2 969.166 516.745C961.267 511.321 953.306 505.976 945.296 500.712L945.049 499.933C948.459 485.639 954.447 479.276 968.163 474.985Z" fill="#D9EDF3"/>
<path d="M1017.41 513.31C1021.53 517.22 1026.48 522.248 1031.51 524.792L1031.95 528.149C1031.81 533.91 1031.26 550.05 1032.03 555.056C1026.87 552.798 1022.25 550.497 1017.22 547.957C1016.16 546.001 1016.52 521.084 1016.51 516.902L1016.07 515.838L1017.41 513.31Z" fill="#D9EDF3"/>
<path d="M1017.41 513.31C1021.53 517.22 1026.48 522.248 1031.51 524.792L1031.95 528.149C1025.21 524.851 1022.1 521.791 1016.51 516.902L1016.07 515.838L1017.41 513.31Z" fill="#A9C9F6"/>
<path d="M1143.39 431.671C1146.28 430.369 1149.28 428.302 1152.24 426.79C1163.56 421.004 1171.24 419.813 1183.62 418.519L1183.67 448.761L1186.62 448.922L1183.82 449.901L1183.73 451.071L1184.32 451.668L1183.65 452.969L1183.75 515.85C1166.53 523.852 1154.73 534.704 1148.07 552.892C1147.2 555.218 1146.45 557.586 1145.83 559.985L1140.3 560.255C1139.8 537.088 1139.89 509.451 1140.37 486.29C1142.49 480.121 1139.54 467.781 1141.99 463.807L1139.54 463.439C1140.83 461.543 1140.31 438.597 1140.3 434.544L1140.94 434.145L1143.39 431.671Z" fill="#7DA2F6"/>
<path d="M1143.39 431.671C1146.28 430.369 1149.28 428.302 1152.24 426.79C1163.56 421.004 1171.24 419.813 1183.62 418.519L1183.67 448.761L1186.62 448.922L1183.82 449.901L1183.73 451.071L1184.32 451.668L1183.65 452.969C1181.62 451.174 1178.04 451.418 1175.39 451.576C1166.82 452.086 1158.22 455.319 1150.6 459.099C1148.16 460.307 1144.16 462.909 1141.99 463.807L1139.54 463.439C1140.83 461.543 1140.31 438.597 1140.3 434.544L1140.94 434.145L1143.39 431.671Z" fill="#7DA2F6"/>
<path d="M1140.94 434.145L1140.9 461.03C1151.82 454.084 1158.72 449.504 1172.39 448.805C1174.89 448.677 1181.97 448.983 1183.67 448.761L1186.62 448.922L1183.82 449.901L1183.73 451.071L1184.32 451.668L1183.65 452.969C1181.62 451.174 1178.04 451.418 1175.39 451.575C1166.82 452.086 1158.22 455.318 1150.6 459.099C1148.16 460.307 1144.16 462.908 1141.99 463.807L1139.54 463.439C1140.83 461.543 1140.31 438.596 1140.3 434.544L1140.94 434.145Z" fill="#A9C9F6"/>
<path d="M1140.29 466.264C1140.3 472.499 1140.09 480.173 1140.37 486.29C1139.89 509.451 1139.8 537.087 1140.3 560.255C1136.12 561.04 1131.93 561.787 1127.73 562.497C1116.26 563.864 1086.43 567.24 1076.03 565.016L1073.65 564.946L1073.5 564.434C1073.93 552.543 1072.79 536.963 1073.65 525.762C1077.18 524.77 1082.15 520.669 1085.17 518.366C1100.1 505.508 1113.49 491.756 1127.41 477.833C1131.42 474.105 1136.05 469.578 1140.29 466.264Z" fill="#A9C9F6"/>
<path d="M1140.29 466.264C1140.3 472.499 1140.09 480.173 1140.37 486.29C1139.89 509.451 1139.8 537.087 1140.3 560.255C1136.12 561.04 1131.93 561.787 1127.73 562.497C1127.25 534.587 1128.56 505.615 1127.41 477.833C1131.42 474.105 1136.05 469.578 1140.29 466.264Z" fill="#D9EDF3"/>
<path d="M1085.17 518.366C1086.81 521.668 1085.93 558.623 1085.96 565.156C1082.96 565.035 1078.93 564.747 1076.03 565.016L1073.65 564.946L1073.5 564.434C1073.93 552.543 1072.79 536.963 1073.65 525.762C1077.18 524.77 1082.15 520.669 1085.17 518.366Z" fill="#D9EDF3"/>
<path d="M969.181 452.283C979.569 451.513 989.84 454.904 997.726 461.71C1003.91 467.036 1012.73 480.464 1016.62 487.842C1022.61 493.293 1023.47 498.603 1031.65 504.848C1031.67 511.471 1031.76 518.181 1031.51 524.792C1026.48 522.248 1021.53 517.22 1017.41 513.31L1016.07 515.838C1007.05 509.278 998.056 482.623 984.588 477.517C979.164 475.46 974.75 473.754 968.954 475.543L968.164 474.985L967.964 473.952L964.65 472.812L969.126 471.97L969.181 452.283Z" fill="#78DBCF"/>
<path d="M1016.62 487.843C1022.61 493.294 1023.46 498.603 1031.65 504.849C1031.67 511.471 1031.76 518.181 1031.51 524.792C1026.48 522.248 1021.53 517.22 1017.41 513.31C1016.89 511.658 1016.8 502.011 1016.67 499.449L1016.62 487.843Z" fill="#D9EDF3"/>
<path d="M969.126 471.97C997.705 472.913 1001.23 492.138 1016.41 511.543L1016.67 499.449C1016.8 502.011 1016.89 511.658 1017.41 513.31L1016.07 515.839C1007.05 509.279 998.056 482.623 984.588 477.517C979.164 475.46 974.75 473.755 968.954 475.543L968.164 474.985L967.964 473.953L964.65 472.812L969.126 471.97Z" fill="#A9C9F6"/>
<path d="M1031.65 504.849L1032.22 505.115C1032.25 511.833 1032.38 518.721 1032.31 525.421C1046.8 531.535 1058.56 530.581 1072.46 523.606L1073.65 525.762C1072.79 536.963 1073.93 552.543 1073.5 564.434L1073.65 564.946C1060.82 564.22 1043.89 559.685 1032.03 555.056C1031.26 550.05 1031.81 533.91 1031.95 528.149L1031.51 524.792C1031.76 518.181 1031.67 511.471 1031.65 504.849Z" fill="#7DA2F6"/>
<path d="M1031.65 504.849L1032.22 505.115C1032.25 511.833 1032.38 518.721 1032.31 525.421C1046.8 531.535 1058.56 530.581 1072.46 523.606L1073.65 525.762C1072.79 536.963 1073.93 552.543 1073.5 564.434C1072.52 561.181 1072.88 532.2 1072.82 526.515C1071.1 527.399 1069.36 528.246 1067.61 529.056C1056.26 534.224 1043.71 532.615 1032.42 528.36C1032.43 535.166 1032.77 548.661 1032.03 555.056C1031.26 550.05 1031.81 533.91 1031.95 528.149L1031.51 524.792C1031.76 518.181 1031.67 511.471 1031.65 504.849Z" fill="#A9C9F6"/>
<path d="M925.016 488.469C934.063 465.835 944.107 455.545 969.181 452.284L969.126 471.97L964.65 472.813L967.964 473.953L968.163 474.986C954.448 479.277 948.459 485.64 945.049 499.933L942.416 498.872L941.852 498.532C937.184 495.744 930.612 492.588 925.662 490.045L925.016 488.469Z" fill="#D9EDF3"/>
<path d="M941.852 498.532C942.821 497.349 944.217 493.168 944.815 491.575C948.788 480.994 953.773 476.248 964.649 472.812L967.963 473.953L968.162 474.986C954.447 479.277 948.458 485.64 945.048 499.933L942.415 498.872L941.852 498.532Z" fill="#A9C9F6"/>
<path d="M1072.86 501.221C1072.85 507.194 1072.51 517.777 1073 523.39L1072.46 523.606C1058.55 530.581 1046.8 531.536 1032.31 525.421C1032.37 518.721 1032.25 511.833 1032.22 505.116C1048.96 513.749 1057.97 512.766 1072.86 501.221Z" fill="#7DA2F6"/>
<path d="M1127.59 445.028C1131 441.723 1136.15 436.532 1140.3 434.544C1140.31 438.596 1140.83 461.543 1139.54 463.438C1134.35 466.906 1132.1 469.193 1127.52 473.427C1127.2 464.592 1127.65 454.11 1127.59 445.028Z" fill="#D9EDF3"/>
<path d="M1139.54 463.438L1141.99 463.807C1139.54 467.781 1142.49 480.121 1140.37 486.29C1140.09 480.173 1140.3 472.499 1140.29 466.264C1136.05 469.578 1131.42 474.105 1127.41 477.833C1113.49 491.756 1100.1 505.508 1085.17 518.366C1082.15 520.669 1077.18 524.77 1073.65 525.762L1072.46 523.606L1073 523.39L1073.75 522.768C1077.59 520.372 1082.38 516.482 1086.06 513.636C1100.07 500.462 1113.57 486.694 1127.52 473.427C1132.1 469.193 1134.35 466.906 1139.54 463.438Z" fill="#7DA2F6"/>
<path d="M1086.05 488.276L1086.06 513.636C1082.38 516.482 1077.59 520.372 1073.75 522.768C1073.23 519.601 1073.47 504.707 1073.48 500.749C1077.64 496.559 1081.83 492.401 1086.05 488.276Z" fill="#D9EDF3"/>
<path d="M537.103 602.367C530.845 599.467 525.598 596.548 520.136 592.259C505.835 581.141 496.587 564.752 494.464 546.761C492.284 529.029 497.301 511.164 508.393 497.16C520.23 482.318 537.48 472.789 556.345 470.672C593.42 466.464 614.411 487.378 639.029 509.985C649.416 519.468 660.088 528.635 671.03 537.472L670.751 538.056C662.064 539.11 644.31 542.51 638.618 549.719L635.986 551.489C626.196 558.084 620.279 567.306 616.11 578.178C606.283 575.853 587.863 575.84 578.016 578.315C575.454 578.956 572.79 579.582 570.27 580.337C557.68 585.018 545.653 591.712 537.103 602.367Z" fill="#F7FDFF"/>
<path d="M578.017 578.315C572.428 578.262 550.921 570.607 545.567 566.601C537.691 560.706 532.628 554.274 530.914 544.414C529.451 535.74 531.565 526.844 536.774 519.756C541.954 512.636 550.768 507.499 559.396 506.407C591.045 502.404 612.97 534.474 635.987 551.489C626.197 558.084 620.279 567.305 616.11 578.177C606.284 575.853 587.864 575.84 578.017 578.315Z" fill="#D9EDF3"/>
<path d="M570.27 580.336C564.493 576.844 549.176 574.284 541.951 568C534.033 561.111 528.827 553.929 527.537 543.323C526.335 533.725 529.076 524.05 535.132 516.509C541.378 508.701 550.763 504.153 560.618 503.117C590.985 499.923 615.697 531.262 638.618 549.718L635.986 551.489C612.969 534.474 591.044 502.404 559.396 506.407C550.767 507.499 541.954 512.636 536.774 519.757C531.565 526.844 529.451 535.74 530.914 544.414C532.627 554.274 537.691 560.706 545.567 566.601C550.92 570.608 572.427 578.262 578.016 578.315C575.455 578.956 572.791 579.582 570.27 580.336Z" fill="#7DA2F6"/>
<path d="M847.039 483.887C847.011 483.367 846.988 482.846 846.969 482.325C846.223 462.871 846.508 442.29 846.654 422.776C846.817 400.852 840.384 363.466 872.493 363.114C879.398 363.038 886.034 365.793 890.853 370.74C900.423 380.47 897.694 403.493 897.687 416.888L897.646 481.715C904.864 483.013 915.514 485.921 922.121 489.023L922.306 489.949L925.015 488.468L925.661 490.044C930.611 492.588 937.184 495.743 941.852 498.531L942.416 498.872L945.049 499.933L945.296 500.712C942.732 511.213 944.444 533.029 944.327 544.998L941.721 544.656C933.891 543.354 930.797 543.484 923.049 544.462L920.471 544.959C911.925 546.374 905.909 548.478 898.017 552.225C870.582 568.006 858.444 589.846 859.102 621.393L847.111 621.332L847.039 483.887Z" fill="#FEDA83"/>
<path d="M897.646 481.715C904.865 483.014 915.514 485.921 922.121 489.024L922.307 489.95L925.016 488.469L925.662 490.045C930.612 492.588 937.184 495.744 941.853 498.532L942.416 498.872L945.049 499.933L945.297 500.712C942.733 511.213 944.444 533.029 944.328 544.998L941.722 544.656C933.891 543.354 930.798 543.484 923.049 544.463L920.471 544.959C911.926 546.375 905.91 548.478 898.018 552.225C897.138 529.883 897.681 504.298 897.646 481.715Z" fill="#0D8FC0"/>
<path d="M923.05 544.463C923.036 535.663 921.001 494.319 925.662 490.045C930.612 492.588 937.185 495.744 941.853 498.532L942.416 498.872L945.05 499.933L945.297 500.712C942.733 511.213 944.445 533.03 944.328 544.998L941.722 544.657C933.891 543.355 930.798 543.484 923.05 544.463Z" fill="#0D8FC0"/>
<path d="M942.416 498.872L945.049 499.933L945.297 500.712C942.732 511.213 944.444 533.029 944.327 544.998L941.722 544.656C941.206 531.502 940.828 511.284 942.416 498.872Z" fill="#A9C9F6"/>
<path d="M922.308 489.95L925.016 488.469L925.663 490.045C921.001 494.318 923.036 535.663 923.05 544.463L920.472 544.959C920.28 529.519 918.224 503.74 922.308 489.95Z" fill="#A9C9F6"/>
<path d="M1270.33 564.562C1284.96 549.711 1299.89 541.576 1321.34 541.461C1339.04 541.284 1356.06 548.314 1368.48 560.936C1381.06 573.5 1388.09 590.58 1388 608.364C1387.98 612.758 1387.5 617.137 1386.56 621.43L1359.87 621.39L1331.49 621.343C1319.41 603.739 1309.19 592.609 1291.7 580.248C1284.83 575.653 1278.09 571.896 1270.77 568.092L1270.33 564.562Z" fill="#78DBCF"/>
<path d="M1291.7 580.248C1300.71 571.834 1309.99 566.853 1322.8 567.302C1333.71 567.661 1344.03 572.376 1351.44 580.394C1358.76 588.337 1362.59 598.891 1362.05 609.685C1361.87 613.133 1361 618.094 1359.87 621.39L1331.49 621.343C1319.41 603.739 1309.19 592.609 1291.7 580.248Z" fill="#D9EDF3"/>
<path d="M1140.39 427.326L1140.34 342.754C1140.35 335.692 1140.23 328.541 1140.33 321.488C1140.47 311.183 1138.81 300.195 1146.4 291.954C1150.42 287.634 1156.02 285.127 1161.93 285.005C1167.74 284.886 1173.34 287.126 1177.46 291.216C1184.86 298.626 1183.6 309.181 1183.7 318.808C1183.78 325.854 1183.69 332.937 1183.68 339.985L1183.62 415.683C1172.07 415.811 1150.9 420.646 1142.66 429.153L1141.16 429.191L1140.39 427.326Z" fill="#7DA2F6"/>
<path d="M1183.62 418.519C1201.61 418.566 1218.85 425.763 1231.53 438.524C1244.81 451.986 1252.15 470.206 1251.91 489.115C1251.77 502.012 1248.69 510.549 1244.01 522.311C1234.23 515.883 1225.03 512.309 1213.27 511.601L1210.22 511.365C1200.96 511.063 1192.33 512.092 1183.75 515.85L1183.65 452.969L1184.32 451.668L1183.73 451.071L1183.82 449.901L1186.62 448.922L1183.67 448.761L1183.62 418.519Z" fill="#D9EDF3"/>
<path d="M1183.65 452.97L1184.32 451.668C1215.96 458.582 1223.45 483.92 1210.22 511.366C1200.96 511.063 1192.33 512.092 1183.75 515.85L1183.65 452.97Z" fill="#D9EDF3"/>
<path d="M1186.62 448.923C1217.52 456.851 1227.72 483.999 1213.27 511.602L1210.22 511.366C1223.45 483.92 1215.96 458.582 1184.32 451.668L1183.73 451.071L1183.82 449.901L1186.62 448.923Z" fill="#7DA2F6"/>
<path d="M969.214 449.376C969.145 433.825 969.083 418.246 969.09 402.722C969.097 394.593 970.768 385.481 976.777 379.686C989.963 366.965 1013.99 373.847 1016.02 392.967C1017.15 403.64 1016.72 413.753 1016.7 424.318L1016.54 481.072C1012.54 476.627 1008.75 468.531 1003.22 463.088C992.555 452.577 983.562 449.822 969.214 449.376Z" fill="#78DBCF"/>
<path d="M671.855 533.865C672.647 512.178 669.839 486.179 672.351 464.464C672.694 461.493 675.472 457.197 677.795 455.081C681.377 451.827 686.107 450.134 690.94 450.373C699.569 450.823 706.331 456.74 707.507 465.364C708.239 470.723 708.337 475.064 708.311 480.533C708.202 503.052 708.593 525.603 708.319 548.119C708.307 548.253 708.294 548.385 708.282 548.518C696.22 540.604 684.798 538.669 670.752 538.056L671.03 537.471L672.036 536.321L671.855 533.865Z" fill="#A9C9F6"/>
<path d="M1032.08 472.787C1034.32 466.061 1036.69 461.51 1043.44 458.028C1048.45 455.434 1054.28 454.939 1059.64 456.655C1076.84 462.267 1072.91 482.941 1072.94 496.92C1061.57 509.077 1045.74 512.259 1032.41 501.197L1032.08 472.787Z" fill="#7DA2F6"/>
<path d="M720.359 554.934C720.282 546.411 719.478 517.868 721.098 511.214C721.815 508.218 723.32 505.469 725.458 503.251C728.953 499.675 733.723 497.631 738.724 497.566C760.744 497.179 757.365 522.737 757.243 537.458C745.13 537.212 736.237 541.328 727.058 548.94C725.825 549.962 721.181 554.406 720.359 554.934Z" fill="#A9C9F6"/>
<path d="M534.841 604.803C529.469 602.394 524.384 599.393 519.679 595.854C504.508 584.66 494.462 567.847 491.794 549.183C488.928 530.196 493.893 510.859 505.55 495.602C526.72 467.746 565.896 460.07 597.172 473.955C614.495 481.646 626.84 494.375 640.474 506.997C650.531 516.413 661.002 525.378 671.855 533.865L672.035 536.321L671.03 537.471C660.088 528.635 649.416 519.468 639.029 509.984C614.411 487.377 593.421 466.463 556.346 470.672C537.481 472.789 520.23 482.318 508.393 497.16C497.301 511.163 492.284 529.029 494.465 546.761C496.588 564.751 505.835 581.14 520.136 592.258C525.598 596.547 530.846 599.467 537.103 602.366L534.841 604.803Z" fill="#7DA2F6"/>
<path d="M1183.63 415.684C1203.99 416.34 1221.11 422.967 1235.25 438.035C1248.57 452.251 1255.67 471.203 1254.95 490.675C1254.49 502.288 1251.51 513.662 1246.22 524.01L1244.01 522.311C1248.69 510.549 1251.77 502.012 1251.91 489.116C1252.15 470.206 1244.81 451.987 1231.53 438.525C1218.85 425.764 1201.61 418.567 1183.63 418.519C1171.24 419.814 1163.56 421.005 1152.24 426.79C1149.28 428.303 1146.28 430.37 1143.39 431.671L1141.39 431.939L1141.82 431.493L1140.92 431.825C1142.2 430.46 1142.55 430.587 1142.66 429.154C1150.9 420.646 1172.08 415.811 1183.63 415.684Z" fill="#A9C9F6"/>
<path d="M724.806 434.985C720.484 421.169 723.008 406.12 731.602 394.472C740.197 382.824 753.83 375.974 768.304 376.029C791.58 376.118 811.016 393.798 813.306 416.962C815.595 440.127 799.995 461.27 777.188 465.914C754.38 470.559 731.756 457.199 724.806 434.985Z" fill="#D9EDF3"/>
<path d="M768.303 376.029C791.579 376.119 811.015 393.799 813.305 416.963C815.595 440.127 799.994 461.27 777.187 465.915C754.38 470.559 731.755 457.2 724.805 434.985C726.358 433.42 739.67 430.643 742.739 429.938C746.931 442.91 760.227 450.633 773.57 447.848C786.913 445.063 796.01 432.665 794.664 419.099C793.317 405.534 781.961 395.167 768.331 395.059L768.303 376.029Z" fill="#FD9046"/>
<path d="M724.806 434.985C720.484 421.169 723.008 406.12 731.602 394.472C740.197 382.824 753.83 375.974 768.304 376.029L768.332 395.058C759.763 394.991 751.685 399.043 746.616 405.952C741.546 412.861 740.104 421.784 742.74 429.938C739.671 430.642 726.359 433.419 724.806 434.985Z" fill="#FEDA83"/>
<path d="M1027.54 301.247C1040.63 300.312 1052.01 310.138 1052.99 323.224C1053.98 336.31 1044.2 347.73 1031.12 348.765C1017.97 349.807 1006.47 339.96 1005.48 326.803C1004.49 313.645 1014.38 302.188 1027.54 301.247Z" fill="#FD9046"/>
<path d="M1300.3 451.792C1309.23 450.366 1317.63 456.429 1319.1 465.354C1320.56 474.278 1314.53 482.706 1305.62 484.206C1296.64 485.715 1288.15 479.644 1286.68 470.666C1285.21 461.689 1291.32 453.225 1300.3 451.792Z" fill="#0D8FC0"/>
<path d="M895.568 261.25C899.812 260.371 904.2 261.849 907.047 265.116C909.894 268.384 910.758 272.932 909.308 277.016C907.856 281.1 904.316 284.084 900.046 284.823C893.592 285.939 887.435 281.673 886.213 275.239C884.991 268.803 889.154 262.577 895.568 261.25Z" fill="#FBC754"/>
</g>
<defs>
<linearGradient id="paint0_linear_362_5868" x1="704" y1="-7" x2="704" y2="621" gradientUnits="userSpaceOnUse">
<stop stop-color="#F1F7FF"/>
<stop offset="1" stop-color="white"/>
</linearGradient>
<clipPath id="clip0_362_5868">
<rect width="1408" height="621" fill="white"/>
</clipPath>
</defs>
</svg>
