<svg width="1012" height="324" viewBox="0 0 1012 324" fill="none" xmlns="http://www.w3.org/2000/svg">
<path d="M964.565 266.296C965.132 266.302 965.695 266.191 966.217 265.97C966.74 265.749 967.212 265.424 967.603 265.013C967.995 264.603 968.298 264.116 968.493 263.583C968.689 263.051 968.773 262.484 968.74 261.917C968.74 258.812 966.867 257.328 963.022 257.328H956.811V273.588H959.147V266.5H962.018L962.084 266.586L966.539 273.588H969.037L964.244 266.341L964.565 266.296ZM961.863 264.667H959.154V259.171H962.588C964.361 259.171 966.383 259.46 966.383 261.783C966.383 264.454 964.337 264.667 961.849 264.667M54.4609 88.5087H88.9439V214.115H152.782V245.937H54.4609V88.5087ZM168.027 139.196H201.154V245.878H168.027V139.196ZM184.591 86.1588C188.391 86.1595 192.106 87.2871 195.266 89.3991C198.426 91.5111 200.888 94.5127 202.342 98.0242C203.796 101.536 204.176 105.399 203.435 109.127C202.693 112.854 200.862 116.278 198.174 118.966C195.487 121.653 192.063 123.483 188.335 124.224C184.607 124.965 180.744 124.584 177.232 123.13C173.721 121.675 170.72 119.212 168.609 116.052C166.497 112.892 165.37 109.176 165.37 105.376C165.37 102.852 165.867 100.353 166.833 98.021C167.799 95.6893 169.215 93.5706 171 91.7861C172.785 90.0016 174.904 88.5862 177.236 87.6206C179.567 86.6551 182.067 86.1584 184.591 86.1588ZM339.728 88.4846H372.854V182.568L410.398 139.148H451.013L407.534 188.538L450.099 245.923H408.462L373.296 193.189H372.861V245.916H339.735L339.728 88.4846ZM219.522 139.207H251.334V153.786H251.786C254.964 148.342 259.56 143.863 265.085 140.828C270.609 137.793 276.854 136.315 283.153 136.553C316.746 136.553 322.93 158.655 322.93 187.368V245.871H289.803V194.004C289.803 181.623 289.575 165.708 272.549 165.708C255.33 165.708 252.673 179.19 252.673 193.103V245.858H219.546L219.522 139.207Z" fill="white"/>
<path d="M520.777 180.129C520.841 177.441 520.358 174.769 519.358 172.273C518.358 169.778 516.862 167.511 514.961 165.611C513.059 163.711 510.792 162.216 508.295 161.218C505.799 160.22 503.126 159.739 500.439 159.804C494.651 159.444 488.953 161.373 484.574 165.175C480.195 168.977 477.485 174.347 477.029 180.129H520.777ZM548.839 227.403C543.334 234.079 536.413 239.446 528.578 243.117C520.743 246.788 512.19 248.671 503.538 248.629C470.411 248.629 443.889 226.516 443.889 192.275C443.889 158.034 470.407 135.932 503.538 135.932C534.501 135.932 553.918 158.016 553.918 192.275V202.662H477.029C477.987 208.552 481.04 213.898 485.628 217.715C490.216 221.532 496.029 223.562 501.995 223.432C506.71 223.402 511.343 222.194 515.472 219.917C519.601 217.64 523.095 214.367 525.636 210.395L548.839 227.403ZM622.967 164.983C606.403 164.983 596.465 176.043 596.465 192.158C596.465 208.273 606.4 219.342 622.967 219.342C639.534 219.342 649.492 208.3 649.492 192.158C649.492 176.015 639.551 164.983 622.967 164.983ZM679.99 245.858H649.492V231.71H649.04C645.214 236.856 640.252 241.049 634.539 243.963C628.827 246.876 622.519 248.432 616.107 248.508C584.277 248.508 563.311 225.536 563.311 193.051C563.311 163.217 581.865 135.821 612.366 135.821C626.076 135.821 638.881 139.572 646.394 149.969H646.828V88.4743H679.986L679.99 245.858ZM903.627 245.92H870.5V194.042C870.5 181.671 870.279 165.746 853.271 165.746C836.017 165.746 833.377 179.225 833.377 193.141V245.916H800.25V139.234H832.052V153.813H832.497C835.68 148.372 840.279 143.895 845.804 140.861C851.33 137.826 857.575 136.347 863.875 136.581C897.45 136.581 903.641 158.665 903.641 187.396L903.627 245.92ZM762.872 124.652C759.07 124.652 755.353 123.525 752.191 121.414C749.03 119.302 746.565 116.3 745.11 112.787C743.654 109.275 743.273 105.41 744.014 101.681C744.755 97.9514 746.585 94.5257 749.273 91.8367C751.961 89.1477 755.386 87.3162 759.115 86.5738C762.844 85.8313 766.709 86.2113 770.222 87.6657C773.735 89.1201 776.738 91.5835 778.851 94.7445C780.964 97.9055 782.092 101.622 782.093 105.424C782.093 107.949 781.596 110.449 780.631 112.781C779.665 115.114 778.249 117.233 776.465 119.019C774.68 120.804 772.561 122.22 770.229 123.187C767.897 124.153 765.397 124.651 762.872 124.652ZM779.436 245.92H746.274V139.234H779.436V245.92ZM920.142 55.4406H729.628C725.304 55.3918 721.137 57.0618 718.044 60.0835C714.95 63.1051 713.183 67.2314 713.13 71.5555V262.859C713.181 267.186 714.947 271.315 718.041 274.339C721.134 277.364 725.302 279.037 729.628 278.991H920.142C924.477 279.046 928.656 277.377 931.762 274.353C934.867 271.328 936.645 267.194 936.705 262.859V71.5417C936.643 67.209 934.864 63.0781 931.758 60.0565C928.653 57.0349 924.475 55.3697 920.142 55.4268M962.147 250.085C958.117 250.124 954.266 251.757 951.437 254.627C948.607 257.498 947.029 261.372 947.049 265.403C947.068 269.433 948.683 273.292 951.54 276.135C954.397 278.978 958.263 280.575 962.294 280.575C966.325 280.575 970.191 278.978 973.048 276.135C975.905 273.292 977.52 269.433 977.539 265.403C977.558 261.372 975.981 257.498 973.152 254.627C970.322 251.757 966.471 250.124 962.441 250.085H962.147ZM962.147 278.829C959.504 278.873 956.906 278.132 954.684 276.7C952.461 275.268 950.714 273.209 949.661 270.784C948.609 268.358 948.3 265.675 948.772 263.074C949.245 260.472 950.478 258.07 952.316 256.169C954.154 254.269 956.515 252.956 959.099 252.397C961.683 251.838 964.375 252.058 966.834 253.029C969.293 254 971.409 255.678 972.915 257.852C974.42 260.026 975.247 262.597 975.291 265.24V265.465C975.365 268.933 974.059 272.288 971.659 274.793C969.26 277.298 965.964 278.747 962.496 278.822H962.151" fill="white"/>
</svg>
