<svg width="1269" height="567" viewBox="0 0 1269 567" fill="none" xmlns="http://www.w3.org/2000/svg">
<rect x="0.5" y="0.5" width="1268" height="566" rx="11.5" fill="url(#paint0_linear_459_6845)"/>
<rect x="0.5" y="0.5" width="1268" height="566" rx="11.5" stroke="#E8E8E8"/>
<circle cx="1037" cy="439" r="36" fill="#41BAB0"/>
<path d="M1019.04 440.14L1032.27 457L1055.04 428" stroke="white" stroke-width="9" stroke-linecap="round" stroke-linejoin="round"/>
<circle cx="215" cy="439" r="36" fill="#41BAB0"/>
<path d="M212.883 456V424.95L213.833 425.35C213.4 426.283 212.65 427.2 211.583 428.1C210.517 429 209.283 429.783 207.883 430.45C206.483 431.083 205 431.533 203.433 431.8V426.7C204.9 426.467 206.333 426.033 207.733 425.4C209.133 424.733 210.383 423.933 211.483 423C212.583 422.033 213.4 421.033 213.933 420H218.033V456H212.883Z" fill="white"/>
<circle cx="485" cy="439" r="36" fill="#41BAB0"/>
<path d="M472.98 456V451.65C476.48 448.783 479.397 446.283 481.73 444.15C484.097 442.017 485.98 440.117 487.38 438.45C488.78 436.783 489.78 435.267 490.38 433.9C490.98 432.533 491.28 431.167 491.28 429.8C491.28 427.933 490.73 426.483 489.63 425.45C488.564 424.383 487.08 423.85 485.18 423.85C483.214 423.85 481.614 424.433 480.38 425.6C479.147 426.733 478.38 428.35 478.08 430.45H472.68C473.014 427.15 474.297 424.5 476.53 422.5C478.797 420.5 481.78 419.5 485.48 419.5C489.014 419.5 491.797 420.433 493.83 422.3C495.897 424.167 496.93 426.733 496.93 430C496.93 431.667 496.614 433.333 495.98 435C495.38 436.633 494.38 438.35 492.98 440.15C491.58 441.917 489.697 443.883 487.33 446.05C484.997 448.183 482.097 450.617 478.63 453.35L477.38 451.65H497.58V456H472.98Z" fill="white"/>
<circle cx="763" cy="439" r="36" fill="#41BAB0"/>
<path d="M763.421 456.5C760.955 456.5 758.771 456.05 756.871 455.15C755.005 454.25 753.488 452.95 752.321 451.25C751.188 449.517 750.488 447.417 750.221 444.95H755.671C756.005 447.317 756.821 449.117 758.121 450.35C759.421 451.55 761.155 452.15 763.321 452.15C765.321 452.15 766.921 451.6 768.121 450.5C769.321 449.4 769.921 447.883 769.921 445.95C769.921 443.983 769.338 442.383 768.171 441.15C767.005 439.917 765.338 439.3 763.171 439.3H759.121V435.05H763.021C764.955 435.05 766.455 434.533 767.521 433.5C768.588 432.467 769.121 431.1 769.121 429.4C769.121 427.667 768.605 426.317 767.571 425.35C766.538 424.35 765.055 423.85 763.121 423.85C761.321 423.85 759.771 424.383 758.471 425.45C757.205 426.517 756.438 428.067 756.171 430.1H750.721C750.955 427.933 751.605 426.067 752.671 424.5C753.771 422.9 755.221 421.667 757.021 420.8C758.855 419.933 760.938 419.5 763.271 419.5C765.571 419.5 767.571 419.883 769.271 420.65C771.005 421.417 772.338 422.517 773.271 423.95C774.238 425.383 774.721 427.067 774.721 429C774.721 430.667 774.338 432.15 773.571 433.45C772.805 434.75 771.788 435.767 770.521 436.5C769.288 437.2 767.905 437.55 766.371 437.55L766.171 436.5C768.105 436.5 769.771 436.933 771.171 437.8C772.605 438.633 773.705 439.783 774.471 441.25C775.238 442.683 775.621 444.333 775.621 446.2C775.621 448.267 775.088 450.083 774.021 451.65C772.988 453.183 771.555 454.383 769.721 455.25C767.888 456.083 765.788 456.5 763.421 456.5Z" fill="white"/>
<defs>
<linearGradient id="paint0_linear_459_6845" x1="424.945" y1="-189.869" x2="847.306" y2="755.416" gradientUnits="userSpaceOnUse">
<stop stop-color="#F2F2F2"/>
<stop offset="1" stop-color="#FAFAFA"/>
</linearGradient>
</defs>
</svg>
